<svg xmlns="http://www.w3.org/2000/svg" version="1.1" xmlns:xlink="http://www.w3.org/1999/xlink" xmlns:svgjs="http://svgjs.dev/svgjs" width="1000" height="623" viewBox="0 0 1000 623"><g transform="matrix(1,0,0,1,-0.6060606060606233,0.2522267206477409)"><svg viewBox="0 0 396 247" data-background-color="#010536" preserveAspectRatio="xMidYMid meet" height="623" width="1000" xmlns="http://www.w3.org/2000/svg" xmlns:xlink="http://www.w3.org/1999/xlink"><g id="tight-bounds" transform="matrix(1,0,0,1,0.2400000000000091,-0.09999999999999432)"><svg viewBox="0 0 395.52 247.2" height="247.2" width="395.52"><g><svg></svg></g><g><svg viewBox="0 0 395.52 247.2" height="247.2" width="395.52"><g transform="matrix(1,0,0,1,39.55199999999999,43.46388816402609)"><svg viewBox="0 0 316.416 160.2722236719478" height="160.2722236719478" width="316.416"><g><svg viewBox="0 0 316.416 160.2722236719478" height="160.2722236719478" width="316.416"><g><svg viewBox="0 0 316.416 160.2722236719478" height="160.2722236719478" width="316.416"><g id="textblocktransform"><svg viewBox="0 0 316.416 160.2722236719478" height="160.2722236719478" width="316.416" id="textblock"><g><svg viewBox="0 0 316.416 160.2722236719478" height="160.2722236719478" width="316.416"><g transform="matrix(1,0,0,1,0,0)"><svg width="316.416" viewBox="1.5099999904632568 -39.11000061035156 104.77999877929688 53.06999969482422" height="160.2722236719478" data-palette-color="#fbfbf8"><path d="M23.83-14.55L23.83-14.55Q23.83-12.4 23.36-9.84 22.9-7.28 21.8-5.08 20.7-2.88 18.92-1.42 17.14 0.05 14.45 0.05L14.45 0.05Q13.77 0.05 13.04-0.05 12.3-0.15 11.65-0.39 10.99-0.63 10.45-1.05 9.91-1.46 9.62-2.15L9.62-2.15 9.18 4.88Q9.13 6.01 9.11 7.57 9.08 9.13 8.72 10.55 8.35 11.96 7.5 12.96 6.64 13.96 5.03 13.96L5.03 13.96Q4.1 13.96 3.47 13.01 2.83 12.06 2.47 10.6 2.1 9.13 1.9 7.32 1.71 5.52 1.66 3.86 1.61 2.2 1.61 0.83 1.61-0.54 1.61-1.17L1.61-1.17Q1.61-4.44 1.56-7.69 1.51-10.94 1.51-14.21L1.51-14.21Q1.51-14.79 1.51-16.04 1.51-17.29 1.61-18.75 1.71-20.21 1.93-21.78 2.15-23.34 2.59-24.63 3.03-25.93 3.71-26.73 4.39-27.54 5.37-27.54L5.37-27.54Q6.01-27.54 6.52-27.17 7.03-26.81 7.4-26.25 7.76-25.68 8.01-25.05 8.25-24.41 8.4-23.88L8.4-23.88Q9.91-25.59 11.89-26.46 13.87-27.34 16.11-27.34L16.11-27.34Q18.46-27.34 19.95-26.03 21.44-24.71 22.29-22.75 23.14-20.8 23.49-18.58 23.83-16.36 23.83-14.55ZM16.85-14.94L16.85-14.94Q16.85-15.67 16.72-16.43 16.6-17.19 16.28-17.85 15.97-18.51 15.38-18.92 14.79-19.34 13.92-19.34L13.92-19.34Q12.74-19.34 11.45-18.58 10.16-17.82 9.52-16.85L9.52-16.85Q9.28-16.46 9.23-15.58 9.18-14.7 9.18-14.26L9.18-14.26Q9.18-13.92 9.2-13.35 9.23-12.79 9.28-12.21 9.33-11.62 9.4-11.08 9.47-10.55 9.62-10.25L9.62-10.25Q9.77-9.81 10.25-9.45 10.74-9.08 11.33-8.79 11.91-8.5 12.52-8.35 13.13-8.2 13.57-8.2L13.57-8.2Q14.6-8.2 15.23-8.98 15.87-9.77 16.24-10.84 16.6-11.91 16.72-13.06 16.85-14.21 16.85-14.94ZM47.26-8.69L47.26-8.69Q47.26-7.03 46.21-5.44 45.16-3.86 43.58-2.61 41.99-1.37 40.18-0.61 38.38 0.15 36.86 0.15L36.86 0.15Q34.27 0.15 32.25-1.15 30.22-2.44 28.85-4.44 27.49-6.45 26.78-8.86 26.07-11.28 26.07-13.57L26.07-13.57Q26.07-16.02 26.76-18.8 27.44-21.58 28.83-23.93 30.22-26.27 32.35-27.83 34.47-29.39 37.4-29.39L37.4-29.39Q39.06-29.39 40.57-28.83 42.09-28.27 43.21-27.25 44.33-26.22 45.02-24.8 45.7-23.39 45.7-21.63L45.7-21.63Q45.7-19.34 44.72-17.33 43.75-15.33 42.14-13.87 40.52-12.4 38.43-11.5 36.33-10.6 34.13-10.5L34.13-10.5Q34.32-9.08 35.28-8.45 36.23-7.81 37.55-7.81L37.55-7.81Q38.52-7.81 39.45-8.3 40.38-8.79 41.26-9.4 42.14-10.01 42.99-10.5 43.85-10.99 44.72-10.99L44.72-10.99Q45.7-10.99 46.48-10.35 47.26-9.72 47.26-8.69ZM39.35-20.65L39.35-20.65Q39.35-21.29 39.01-21.97 38.67-22.66 37.94-22.66L37.94-22.66Q36.86-22.66 36.13-22.09 35.4-21.53 34.91-20.68 34.42-19.82 34.15-18.85 33.88-17.87 33.84-17.04L33.84-17.04Q34.52-17.19 35.47-17.43 36.42-17.68 37.28-18.09 38.13-18.51 38.74-19.14 39.35-19.78 39.35-20.65ZM70.26-32.13L70.26-32.13Q70.26-28.56 69.99-25.05 69.72-21.53 69.72-17.97L69.72-17.97Q69.72-15.09 69.89-12.26 70.06-9.42 70.06-6.54L70.06-6.54Q70.06-5.76 70.01-4.66 69.97-3.56 69.7-2.54 69.43-1.51 68.82-0.78 68.21-0.05 67.08-0.05L67.08-0.05Q65.62-0.05 64.67-1.15 63.72-2.25 63.47-3.61L63.47-3.61Q62.54-1.86 60.79-0.63 59.03 0.59 56.98 0.59L56.98 0.59Q54.78 0.59 53.19-0.93 51.61-2.44 50.56-4.59 49.51-6.74 48.99-9.08 48.48-11.43 48.48-13.13L48.48-13.13Q48.48-14.36 48.63-15.92 48.77-17.48 49.14-19.09 49.51-20.7 50.09-22.24 50.68-23.78 51.58-25 52.49-26.22 53.73-26.95 54.98-27.69 56.59-27.69L56.59-27.69Q58.34-27.69 59.96-26.66 61.57-25.63 62.4-24.12L62.4-24.12 62.84-31.88Q62.89-32.81 62.98-34.06 63.08-35.3 63.4-36.43 63.72-37.55 64.4-38.33 65.08-39.11 66.4-39.11L66.4-39.11Q67.82-39.11 68.6-38.43 69.38-37.74 69.75-36.69 70.11-35.64 70.19-34.42 70.26-33.2 70.26-32.13ZM62.3-10.06L62.3-10.45Q62.3-11.57 62.25-12.65 62.2-13.72 62.25-14.84L62.25-14.84Q61.96-15.48 61.57-16.24 61.18-16.99 60.62-17.65 60.05-18.31 59.37-18.75 58.69-19.19 57.91-19.19L57.91-19.19Q57.03-19.19 56.49-18.65 55.95-18.12 55.71-17.36 55.46-16.6 55.39-15.72 55.32-14.84 55.32-14.21L55.32-14.21Q55.32-13.62 55.41-12.48 55.51-11.33 55.78-10.16 56.05-8.98 56.54-8.11 57.03-7.23 57.86-7.23L57.86-7.23Q58.49-7.23 59.13-7.5 59.76-7.76 60.32-8.18 60.88-8.59 61.4-9.11 61.91-9.62 62.3-10.06L62.3-10.06ZM94.23-6.88L94.23-6.88Q94.23-6.01 94.16-4.59 94.08-3.17 93.74-1.83 93.4-0.49 92.67 0.49 91.94 1.46 90.62 1.46L90.62 1.46Q88.81 1.46 87.83 0.29 86.86-0.88 86.91-2.64L86.91-2.64Q85.34-1.27 83.37-0.49 81.39 0.29 79.34 0.29L79.34 0.29Q77.92 0.29 76.65-0.39 75.38-1.07 74.41-2.15 73.43-3.22 72.84-4.57 72.26-5.91 72.26-7.23L72.26-7.23Q72.26-9.57 73.7-11.33 75.14-13.09 77.24-14.33 79.34-15.58 81.71-16.31 84.07-17.04 85.93-17.29L85.93-17.29Q85.93-17.53 85.95-17.72 85.98-17.92 85.98-18.16L85.98-18.16Q85.98-19.68 85.15-20.61 84.32-21.53 82.81-21.53L82.81-21.53Q81.58-21.53 80.71-21.12 79.83-20.7 79.05-20.19 78.26-19.68 77.48-19.26 76.7-18.85 75.72-18.85L75.72-18.85Q74.65-18.85 73.89-19.53 73.14-20.21 73.14-21.29L73.14-21.29Q73.14-22.9 74.09-24.22 75.04-25.54 76.48-26.44 77.92-27.34 79.61-27.86 81.29-28.37 82.71-28.37L82.71-28.37Q84.03-28.37 85.34-28.05 86.66-27.73 87.83-27.08 89.01-26.42 89.96-25.46 90.91-24.51 91.5-23.24L91.5-23.24Q92.38-21.44 92.91-19.41 93.45-17.38 93.74-15.26 94.04-13.13 94.13-11.01 94.23-8.89 94.23-6.88ZM86.42-8.45L86.42-8.45 86.27-11.77Q86.17-11.77 86.08-11.79 85.98-11.82 85.88-11.82L85.88-11.82Q85.25-11.82 84.29-11.5 83.34-11.18 82.46-10.62 81.58-10.06 80.97-9.38 80.36-8.69 80.36-7.96L80.36-7.96Q80.36-7.28 80.85-7.03 81.34-6.79 81.97-6.79L81.97-6.79Q83.05-6.79 84.27-7.35 85.49-7.91 86.42-8.45ZM106.29-29.59L106.29-29.59Q106.29-26.95 106.07-24.29 105.85-21.63 105.85-18.95L105.85-18.95Q105.85-15.48 106.07-12.01 106.29-8.54 106.29-5.03L106.29-5.03Q106.29-4.15 106.19-3.05 106.09-1.95 105.73-1.03 105.36-0.1 104.63 0.54 103.9 1.17 102.68 1.17L102.68 1.17Q101.5 1.17 100.65 0.02 99.79-1.12 99.23-2.91 98.67-4.69 98.31-6.88 97.94-9.08 97.77-11.16 97.6-13.23 97.52-14.97 97.45-16.7 97.45-17.53L97.45-17.53Q97.45-18.46 97.52-20.21 97.6-21.97 97.84-24.02 98.09-26.07 98.5-28.2 98.92-30.32 99.6-32.06 100.28-33.79 101.24-34.89 102.19-35.99 103.51-35.99L103.51-35.99Q104.58-35.99 105.14-35.28 105.7-34.57 105.95-33.57 106.19-32.57 106.24-31.47 106.29-30.37 106.29-29.59Z" opacity="1" transform="matrix(1,0,0,1,0,0)" fill="#fbfbf8" class="undefined-text-0" data-fill-palette-color="primary" id="text-0"></path></svg></g></svg></g></svg></g></svg></g><g></g></svg></g></svg></g><g mask="url(#867bda83-0e6c-44aa-8567-1b8b3117e016)"><g transform="matrix(26.72008327968409, 0, 0, 26.72008327968409, 1, 24.976803708266743)"><svg xmlns="http://www.w3.org/2000/svg" xmlns:xlink="http://www.w3.org/1999/xlink" xml:space="preserve" style="shape-rendering:geometricPrecision;text-rendering:geometricPrecision;image-rendering:optimizeQuality;" viewBox="0.0000020265579223632812 0.0000027120113372802734 14.727499008178711 7.38195276260376" x="0" y="0" fill-rule="evenodd" clip-rule="evenodd" width="14.727499008178711" height="7.38195276260376" class="icon-none" data-fill-palette-color="accent" id="none"><g fill="#ffff00" data-fill-palette-color="accent"><path class="" d="M1.757 3.091c-0.313 0.444-0.296 1.331-0.417 1.95-0.153 0.784-0.711 1.203-1.34 1.534 0.188-0.771 0.348-1.542 0.412-2.313 0.078-0.953-0.06-0.891 0.767-1.575 1.159-0.961 3.04-1.741 5.848-2.29 2.456-0.406 5.049-0.453 7.701-0.351-0.89 1.809-3.733 1.961-7.203 1.581-1.811 0.02-3.495-0.488-5.768 1.464z m8.33 2.781c-3.895 2.038-7.803-2.284-9.165 0.688 2.104-1.831 5.079 3.183 9.165-0.688z m2.489-2.547c-4.49 2.72-9.502-0.792-10.907 1.859 3.412-1.235 7.765 2.753 10.907-1.859z m0.834-1.478c-3.944 1.761-10.043-1.402-11.565 2.239 3.106-1.808 8.446 1.438 11.565-2.239z" fill="#ffff00" data-fill-palette-color="accent"></path></g></svg></g></g></svg></g><defs><mask id="867bda83-0e6c-44aa-8567-1b8b3117e016"><rect width="640" height="400" fill="white"></rect><rect width="348.05760000000004" height="235.9450746231053" fill="black" y="5.627462688447338" x="23.731199999999973" id="transform-me"></rect></mask></defs></svg><rect width="395.52" height="247.2" fill="none" stroke="none" visibility="hidden"></rect></g></svg></g></svg>